<?xml version="1.0" standalone="no"?>
<!DOCTYPE svg PUBLIC "-//W3C//DTD SVG 20010904//EN"
 "http://www.w3.org/TR/2001/REC-SVG-20010904/DTD/svg10.dtd">
<svg version="1.0" xmlns="http://www.w3.org/2000/svg"
 width="164.000000pt" height="164.000000pt" viewBox="0 0 164.000000 164.000000"
 preserveAspectRatio="xMidYMid meet">
<metadata>
Created by potrace 1.14, written by Peter Selinger 2001-2017
</metadata>
<g transform="translate(0.000000,164.000000) scale(0.100000,-0.100000)"
fill="#000000" stroke="none">
<path d="M357 1512 c12 -9 90 -60 173 -112 l152 -95 -121 -3 -121 -3 0 -543 0
-544 -54 -33 c-30 -18 -53 -36 -50 -41 3 -4 159 -8 348 -8 313 0 349 2 421 21
93 24 151 56 199 109 44 49 61 82 75 148 22 105 8 223 -35 298 -34 60 -113
127 -187 159 l-64 28 47 24 c69 34 131 93 160 149 35 72 34 191 -4 268 -31 64
-80 110 -152 143 -101 46 -165 53 -499 52 -295 0 -309 -1 -288 -17z m575 -149
c52 -29 82 -101 83 -193 0 -137 -59 -226 -164 -249 -29 -6 -59 -11 -66 -11
-32 0 -12 -18 57 -51 148 -70 228 -184 228 -325 0 -94 -17 -150 -59 -194 -42
-44 -85 -59 -193 -67 l-78 -6 0 563 0 563 80 -6 c51 -3 92 -12 112 -24z"/>
</g>
</svg>
